<svg width="140" height="140" viewBox="0 0 140 140" fill="none" xmlns="http://www.w3.org/2000/svg">
<rect width="140" height="140" fill="white"/>
<path fill-rule="evenodd" clip-rule="evenodd" d="M69.9992 128.334C102.216 128.334 128.333 102.217 128.333 70.0003C128.333 37.7837 102.216 11.667 69.9992 11.667C37.7826 11.667 11.6659 37.7837 11.6659 70.0003C11.6659 102.217 37.7826 128.334 69.9992 128.334ZM129.266 35.467C132.616 35.467 135.333 32.7509 135.333 29.4003C135.333 26.0498 132.616 23.3337 129.266 23.3337C125.915 23.3337 123.199 26.0498 123.199 29.4003C123.199 32.7509 125.915 35.467 129.266 35.467ZM124.599 14.7003C124.599 16.3756 123.241 17.7337 121.566 17.7337C119.891 17.7337 118.533 16.3756 118.533 14.7003C118.533 13.0251 119.891 11.667 121.566 11.667C123.241 11.667 124.599 13.0251 124.599 14.7003ZM14.2326 31.7337C15.9078 31.7337 17.2659 30.3756 17.2659 28.7003C17.2659 27.0251 15.9078 25.667 14.2326 25.667C12.5573 25.667 11.1992 27.0251 11.1992 28.7003C11.1992 30.3756 12.5573 31.7337 14.2326 31.7337Z" fill="#E9F7FF"/>
<path d="M75.5849 9.23968C72.0846 6.87584 67.4478 6.87584 63.9475 9.23968L17.5344 40.606C15.0797 42.2425 13.625 45.0155 13.625 47.9703V109.43C13.625 114.34 17.6253 118.34 22.5349 118.34H117.043C121.953 118.34 125.953 114.34 125.953 109.43V48.0158C125.953 45.061 124.498 42.288 122.043 40.6515L75.5849 9.23968Z" fill="url(#paint0_linear_9873_211999)"/>
<rect x="29.4004" y="24.2666" width="80.2667" height="76.0667" rx="16" fill="url(#paint1_linear_9873_211999)"/>
<rect x="40.1328" y="45.2666" width="59.2667" height="2.8" rx="1.4" fill="#E5ECEF"/>
<rect x="40.1328" y="53.2002" width="59.2667" height="2.8" rx="1.4" fill="#E5ECEF"/>
<rect x="40.1328" y="61.1328" width="59.2667" height="2.8" rx="1.4" fill="#E5ECEF"/>
<rect x="40.1328" y="69.0664" width="59.2667" height="2.8" rx="1.4" fill="#E5ECEF"/>
<rect x="51.8008" y="35" width="35.9333" height="2.8" rx="1.4" fill="#BAE5FA"/>
<path d="M125.816 48.0664C125.816 51.0212 124.361 53.7942 121.906 55.4307L75.4931 86.797C71.9928 89.1609 67.356 89.1609 63.8557 86.797L17.4426 55.4307C14.9879 53.7942 13.5332 51.0212 13.5332 48.0664V109.526C13.5332 114.436 17.5335 118.436 22.4431 118.436H116.951C121.861 118.436 125.861 114.436 125.861 109.526V48.0664H125.816Z" fill="url(#paint2_linear_9873_211999)"/>
<path d="M125.907 48.0156C125.907 49.5158 125.543 50.9704 124.861 52.2887C124.18 53.607 123.134 54.698 121.907 55.5617L114.588 60.5622L99.9047 70.5176L85.2216 80.473L77.9028 85.4734L76.0844 86.7008C75.4935 87.1099 74.8116 87.519 74.1297 87.8372C73.4479 88.1555 72.7205 88.3827 71.9932 88.5646C71.2659 88.7464 70.4931 88.7919 69.7657 88.7919C68.9929 88.7919 68.2656 88.701 67.5383 88.5646C66.8109 88.3827 66.0836 88.1555 65.4017 87.8372C64.7198 87.519 64.0834 87.1099 63.447 86.7008L61.6287 85.4734L54.3098 80.473L39.6268 70.5176L24.9437 60.5622L17.6249 55.5617C16.3975 54.7435 15.3519 53.607 14.6701 52.2887C13.9882 50.9704 13.5791 49.5158 13.6245 48.0156C13.6245 49.5158 14.0337 50.9704 14.7155 52.2433C15.4429 53.5161 16.443 54.6526 17.7158 55.4254L25.0801 60.3349L39.8086 70.2448L54.5371 80.1548L61.9014 85.1097L63.7197 86.3371C64.3107 86.7462 64.9471 87.1099 65.5835 87.4281C66.22 87.7463 66.9473 87.9282 67.6292 88.11C68.3565 88.2464 69.0384 88.3373 69.7657 88.3373C70.4931 88.3373 71.2204 88.2464 71.9023 88.11C72.5841 87.9282 73.3115 87.7463 73.9479 87.4281C74.6298 87.1099 75.2207 86.7462 75.8117 86.3371L77.63 85.1097L84.9943 80.1548L99.6774 70.2448L114.406 60.3349L121.77 55.4254C122.998 54.6071 124.043 53.5161 124.77 52.2433C125.543 50.9704 125.907 49.4703 125.907 48.0156Z" fill="url(#paint3_linear_9873_211999)"/>
<path d="M69.7667 118.385H22.4899C17.5804 118.385 13.5801 114.385 13.5801 109.475C13.5801 106.52 15.0347 103.747 17.4895 102.111L63.9026 70.7446C67.4029 68.3807 72.0397 68.3807 75.54 70.7446L121.953 102.111C124.408 103.747 125.862 106.52 125.862 109.475C125.862 114.385 121.862 118.385 116.953 118.385H69.7667Z" fill="url(#paint4_linear_9873_211999)"/>
<path fill-rule="evenodd" clip-rule="evenodd" d="M62.6412 104.642C63.7725 105.506 65.2166 105.769 66.7969 105.517C67.5757 105.392 68.3583 105.145 69.0799 104.831C72.3875 103.395 75.3298 100.335 77.1445 97.2157C77.2149 97.0934 77.3097 97.0025 77.4156 96.9507C77.5239 96.8957 77.651 96.8728 77.7916 96.8858C77.9294 96.8992 78.0486 96.9468 78.1424 97.0211C78.2363 97.0953 78.3116 97.2038 78.3583 97.3364C78.6396 98.161 78.7639 98.9372 78.7143 99.6238C78.6686 100.232 78.4811 100.775 78.1416 101.22C77.6077 101.919 76.7357 102.32 75.6549 102.436C75.1415 102.49 74.5881 102.484 74.0003 102.415C73.4097 102.971 72.7824 103.493 72.1256 103.965C73.4587 104.308 74.7297 104.423 75.8617 104.301C77.4526 104.128 78.7763 103.493 79.6398 102.361C80.2082 101.617 80.5153 100.736 80.5901 99.7628C80.6623 98.8127 80.5064 97.7804 80.142 96.7239C79.9765 96.2455 79.6913 95.8439 79.313 95.5474C78.9344 95.2481 78.4782 95.0604 77.971 95.0099C77.4698 94.9613 76.9849 95.0553 76.5597 95.2715C76.1321 95.4909 75.7724 95.8285 75.5185 96.2648C73.9227 99.0108 71.3558 101.742 68.4642 103.045C67.7877 103.349 67.127 103.557 66.5041 103.658C65.431 103.83 64.4843 103.674 63.7849 103.14L63.7792 103.141C63.0831 102.609 62.6854 101.736 62.5661 100.653C62.5117 100.139 62.5181 99.5828 62.5867 98.9949C62.0302 98.404 61.5092 97.7765 61.0363 97.1194C60.6949 98.4558 60.579 99.7271 60.702 100.859C60.8749 102.451 61.5125 103.775 62.6412 104.642ZM70.0651 101.221C69.4475 101.663 68.8015 102.044 68.1328 102.342C67.2643 101.863 66.4292 101.309 65.6396 100.706C65.2045 100.374 64.7878 100.028 64.3906 99.6759L64.3934 99.6756C63.1544 98.5686 62.1172 97.3709 61.3157 96.1618L61.2937 96.1271L61.2717 96.0925L61.2357 96.0394L61.2249 96.0235L61.1808 95.9542L61.1772 95.9489L61.1216 95.8579L61.0928 95.8155L61.0668 95.7727L61.052 95.7487L61.0116 95.6846L61.0084 95.6822L60.9672 95.6125L60.9564 95.5965L60.9232 95.5431L60.9008 95.5056L60.882 95.4734L60.8485 95.4171L60.8409 95.4037L60.7997 95.334L60.7957 95.3258L60.7614 95.2639C60.2568 94.3709 59.8853 93.4774 59.6571 92.6168L59.6504 92.5888L59.65 92.5859L59.6335 92.5274L59.6331 92.5245L59.6198 92.4684L59.6183 92.4571L59.6128 92.4376L59.6057 92.4067L59.6006 92.39L59.5991 92.3786L59.592 92.3477L59.5858 92.3225L59.585 92.3169L59.578 92.286L59.5738 92.2547L59.5671 92.2267L59.5601 92.1958L59.5589 92.1872L59.553 92.1649L59.546 92.134C59.5219 92.0186 59.5009 91.9057 59.4828 91.7924C59.2331 90.2112 59.4964 88.7667 60.3604 87.6381C61.224 86.5066 62.5476 85.8718 64.1385 85.6989C65.2676 85.5764 66.5415 85.692 67.8747 86.034C67.2178 86.507 66.5909 87.0309 65.9999 87.5847C65.4121 87.516 64.8558 87.5096 64.3424 87.564C63.2617 87.68 62.3897 88.0806 61.8558 88.7801C61.3219 89.4796 61.1654 90.4266 61.3384 91.5C61.4639 92.2847 61.7588 93.1248 62.2072 93.9877L62.2097 93.9845C62.534 94.6123 62.9406 95.2494 63.4185 95.8797L63.4189 95.8826C63.6579 96.1977 63.92 96.5127 64.1991 96.8254L64.2024 96.8278L64.2538 96.8875L64.2879 96.9263L64.3084 96.9496L64.3292 96.9758L64.3526 96.9987L64.373 97.022L64.3967 97.0477C64.4574 97.1119 64.5153 97.1765 64.5788 97.2403L64.6021 97.2632L64.6254 97.2862L64.6287 97.2886L64.6488 97.3091L64.6721 97.332L64.6954 97.3549L64.7187 97.3778L64.742 97.4007L64.7654 97.4236L64.7786 97.4363L64.7923 97.4519L64.8221 97.4797L64.8518 97.5075L64.8551 97.51C65.4368 98.0946 66.0799 98.6623 66.7825 99.1988C67.5206 99.7625 68.2783 100.257 69.0317 100.677C69.3803 100.882 69.7255 101.061 70.0651 101.221ZM63.7803 95.0615C63.9401 94.7218 64.1166 94.3769 64.3101 94.0297C64.7297 93.2761 65.2243 92.5211 65.7878 91.7829C66.3508 91.0418 66.9518 90.368 67.568 89.7645C67.9078 89.4296 68.251 89.1202 68.5945 88.834L68.6541 88.7826L68.6774 88.7621L68.6827 88.7585L68.7011 88.7444L68.7244 88.7239L68.7268 88.7207C68.8546 88.6168 68.9828 88.5157 69.1114 88.4174C69.7415 87.9393 70.3755 87.5331 71.0031 87.2087C71.8657 86.7603 72.7084 86.4649 73.49 86.3398C74.5632 86.1669 75.5099 86.3235 76.2092 86.8576L76.2117 86.8544C76.6536 87.1944 76.9776 87.6689 77.1823 88.2462C77.414 88.8952 77.4986 89.6767 77.4417 90.5466C77.4316 90.6868 77.3904 90.811 77.3166 90.9077C77.2456 91.004 77.1432 91.0814 77.0138 91.1306C76.8816 91.1802 76.7502 91.192 76.634 91.1671C76.5178 91.1422 76.4024 91.0795 76.3023 90.9801C75.3127 90.0075 74.185 89.1055 72.9723 88.3248L72.972 88.322C72.6078 88.0873 72.2367 87.8651 71.8589 87.6582C71.1934 87.9587 70.5446 88.3409 69.9294 88.7793C70.6208 89.1032 71.2996 89.4839 71.9581 89.9077L71.9606 89.9045C73.0402 90.5988 74.0647 91.422 74.9811 92.3234C75.341 92.6774 75.7798 92.9079 76.2473 93.0072C76.7148 93.1065 77.2074 93.0694 77.6777 92.8877C78.1508 92.7056 78.5442 92.404 78.8277 92.0158C79.1116 91.6305 79.2838 91.1676 79.3173 90.6625C79.3876 89.5477 79.2687 88.5104 78.9487 87.6129C78.6236 86.6987 78.0921 85.928 77.3476 85.3594C76.2164 84.4955 74.7723 84.232 73.192 84.4845C69.9721 85.0003 66.8825 87.5011 64.8543 89.9346L64.8539 89.9318C64.6618 90.1601 64.4736 90.3966 64.2891 90.6384C63.6716 91.4475 63.1293 92.2784 62.6627 93.1135L62.659 93.1285C62.957 93.7975 63.3387 94.4436 63.7803 95.0615Z" fill="#61CBFF"/>
<path d="M13.625 109.476C13.625 107.976 13.9887 106.521 14.6705 105.203C15.3524 103.885 16.398 102.794 17.6253 101.93L24.9442 96.9294L39.6272 87.0194L54.3103 77.064L61.6291 72.0636L63.4475 70.8362C64.0384 70.4271 64.7203 70.018 65.4022 69.6997C66.0841 69.3815 66.8114 69.1542 67.5387 68.9724C68.2661 68.7906 69.0389 68.7451 69.7662 68.7451C70.539 68.7451 71.2663 68.836 71.9937 68.9724C72.721 69.1542 73.4483 69.3815 74.1302 69.6997C74.8121 70.018 75.4485 70.4271 76.0849 70.8362L77.9033 72.0636L85.2221 77.064L99.9052 87.0194L114.588 96.9748L121.907 101.975C123.134 102.794 124.18 103.93 124.862 105.248C125.544 106.567 125.953 108.021 125.907 109.521C125.907 108.021 125.498 106.567 124.816 105.294C124.089 104.021 123.089 102.884 121.816 102.112L114.452 97.2021L99.7233 87.2922L84.9948 77.3822L77.7214 72.4272L75.9031 71.1999C75.3121 70.7907 74.6757 70.4271 74.0393 70.1089C73.4029 69.7907 72.6755 69.6088 71.9937 69.427C71.2663 69.2906 70.5845 69.1997 69.8571 69.1997C69.1298 69.1997 68.4024 69.2906 67.7206 69.427C67.0387 69.6088 66.3114 69.7907 65.6749 70.1089C64.9931 70.4271 64.4021 70.7907 63.8111 71.1999L61.9928 72.4272L54.6285 77.3822L39.9454 87.2922L25.2169 97.2021L17.7163 102.066C16.4889 102.884 15.4433 103.975 14.716 105.248C13.9887 106.521 13.625 108.021 13.625 109.476Z" fill="url(#paint5_linear_9873_211999)"/>
<circle cx="103.133" cy="37.8002" r="12.6" fill="#FEBB01"/>
<path d="M104.902 32.4805H102.458L100.053 33.9505V36.2032L102.191 34.9241H102.248V42.255H104.902V32.4805Z" fill="white"/>
<defs>
<linearGradient id="paint0_linear_9873_211999" x1="69.7889" y1="7.4668" x2="69.7889" y2="118.34" gradientUnits="userSpaceOnUse">
<stop stop-color="#0493D8"/>
<stop offset="1" stop-color="#16B3FF"/>
</linearGradient>
<linearGradient id="paint1_linear_9873_211999" x1="69.5191" y1="24.2444" x2="69.5191" y2="100.358" gradientUnits="userSpaceOnUse">
<stop stop-color="#FDFBFB"/>
<stop offset="1" stop-color="#ECEEEF"/>
</linearGradient>
<linearGradient id="paint2_linear_9873_211999" x1="69.6971" y1="48.0664" x2="69.6971" y2="118.436" gradientUnits="userSpaceOnUse">
<stop stop-color="#02ADFF"/>
<stop offset="1" stop-color="#00A4F3"/>
</linearGradient>
<linearGradient id="paint3_linear_9873_211999" x1="69.764" y1="48.0156" x2="69.764" y2="88.7919" gradientUnits="userSpaceOnUse">
<stop stop-color="#77B5FF"/>
<stop offset="1" stop-color="white"/>
</linearGradient>
<linearGradient id="paint4_linear_9873_211999" x1="69.7213" y1="68.9717" x2="69.7213" y2="118.385" gradientUnits="userSpaceOnUse">
<stop stop-color="#51C6FF"/>
<stop offset="1" stop-color="#00A4F3"/>
</linearGradient>
<linearGradient id="paint5_linear_9873_211999" x1="69.7679" y1="68.7451" x2="69.7679" y2="109.521" gradientUnits="userSpaceOnUse">
<stop stop-color="#77B5FF"/>
<stop offset="1" stop-color="white"/>
</linearGradient>
</defs>
</svg>
