<svg width="64" height="64" viewBox="0 0 64 64" fill="none" xmlns="http://www.w3.org/2000/svg">
<g clip-path="url(#clip0)">
<circle cx="34.9139" cy="29.7231" r="22.4" transform="rotate(15.1051 34.9139 29.7231)" fill="#F5F7F9"/>
<path d="M37.281 9.43924C37.281 9.43924 38.616 8.55662 40.4901 9.06247C42.3642 9.56832 43.0737 11.0028 43.0737 11.0028" stroke="#D6DAE0" stroke-linecap="round"/>
<path d="M35.9763 6.60097C35.9763 6.60097 38.149 5.32302 41.2726 6.16611C44.3961 7.00919 45.6307 9.20687 45.6307 9.20687" stroke="#D6DAE0" stroke-linecap="round"/>
<path d="M39.4492 12.9243L37.7554 19.1997" stroke="#D6DAE0"/>
<circle cx="39.1871" cy="13.8897" r="2" transform="rotate(15.1051 39.1871 13.8897)" fill="#D6DAE0"/>
<ellipse cx="34.8878" cy="29.8197" rx="14" ry="12.5" transform="rotate(15.1051 34.8878 29.8197)" fill="url(#paint0_linear)"/>
<ellipse cx="33.9743" cy="33.1987" rx="31" ry="9" transform="rotate(15.1051 33.9743 33.1987)" fill="url(#paint1_linear)"/>
<ellipse cx="33.4547" cy="35.1296" rx="31" ry="9" transform="rotate(15.1051 33.4547 35.1296)" fill="url(#paint2_linear)"/>
<ellipse cx="33.1935" cy="36.0951" rx="20" ry="5" transform="rotate(15.1051 33.1935 36.0951)" fill="white"/>
<path d="M13.885 30.8832L52.5029 41.3068L58.2486 58.3945C58.2486 58.3945 46.8319 52.7235 29.9366 48.1632C13.0412 43.6028 0.321619 42.7591 0.321619 42.7591L13.885 30.8832Z" fill="url(#paint3_linear)"/>
<path d="M53.265 44.6201C53.2647 44.6212 53.2635 44.6254 53.2576 44.6337C53.2513 44.6426 53.2385 44.6574 53.2141 44.6766C53.1632 44.7167 53.0752 44.7652 52.9347 44.8124C52.652 44.9074 52.2281 44.9742 51.6584 45.0017C50.5249 45.0564 48.9125 44.9521 46.9284 44.6965C42.9662 44.1861 37.5871 43.0815 31.7337 41.5016C25.8803 39.9216 20.6759 38.1697 16.995 36.617C15.1518 35.8396 13.7059 35.1184 12.7539 34.5008C12.2754 34.1903 11.9427 33.9193 11.7462 33.695C11.6485 33.5835 11.5969 33.4974 11.5731 33.4371C11.5617 33.4082 11.5581 33.3889 11.5571 33.3781C11.5561 33.368 11.5572 33.3637 11.5575 33.3626C11.5578 33.3616 11.559 33.3573 11.5649 33.3491C11.5712 33.3402 11.584 33.3253 11.6084 33.3061C11.6593 33.266 11.7473 33.2176 11.8878 33.1703C12.1705 33.0754 12.5944 33.0086 13.1641 32.9811C14.2976 32.9264 15.91 33.0307 17.8941 33.2863C21.8563 33.7966 27.2354 34.9013 33.0888 36.4812C38.9422 38.0611 44.1465 39.8131 47.8275 41.3657C49.6707 42.1432 51.1166 42.8644 52.0686 43.482C52.5471 43.7924 52.8798 44.0634 53.0763 44.2877C53.174 44.3993 53.2256 44.4854 53.2494 44.5457C53.2608 44.5746 53.2644 44.5938 53.2654 44.6047C53.2664 44.6148 53.2653 44.619 53.265 44.6201Z" stroke="url(#paint4_linear)" stroke-width="0.8"/>
<path d="M55.5639 51.4552C55.5411 51.5396 55.4413 51.6846 55.0813 51.8288C54.7321 51.9687 54.2184 52.0735 53.5377 52.1316C52.1812 52.2475 50.261 52.1707 47.9052 51.9082C43.1999 51.3838 36.8285 50.1271 29.9103 48.2597C22.992 46.3924 16.8536 44.2725 12.5235 42.3581C10.3556 41.3996 8.65747 40.4998 7.54355 39.7171C6.98454 39.3243 6.59336 38.9753 6.36199 38.6787C6.12346 38.3729 6.11009 38.1974 6.13288 38.113C6.15567 38.0286 6.25551 37.8837 6.6155 37.7394C6.96468 37.5996 7.47839 37.4947 8.1591 37.4366C9.51555 37.3207 11.4358 37.3975 13.7916 37.6601C18.4969 38.1844 24.8682 39.4411 31.7865 41.3085C38.7048 43.1758 44.8432 45.2957 49.1733 47.2101C51.3412 48.1686 53.0393 49.0684 54.1532 49.8511C54.7122 50.2439 55.1034 50.593 55.3348 50.8895C55.5733 51.1953 55.5867 51.3708 55.5639 51.4552Z" stroke="url(#paint5_linear)" stroke-width="0.8"/>
<path d="M57.8617 58.2902C57.8458 58.3491 57.7523 58.4951 57.3259 58.6335C56.923 58.7643 56.3304 58.851 55.5494 58.8837C53.9932 58.9487 51.7866 58.7957 49.0799 58.4389C43.6723 57.7259 36.3328 56.2081 28.3463 54.0524C20.3598 51.8967 13.2533 49.5154 8.22143 47.4105C5.70278 46.357 3.71894 45.3788 2.4068 44.5396C1.74823 44.1184 1.27985 43.7453 0.997441 43.4295C0.698625 43.0954 0.691208 42.9222 0.707101 42.8633C0.722994 42.8044 0.816566 42.6585 1.24292 42.5201C1.64586 42.3893 2.23837 42.3025 3.01944 42.2699C4.57564 42.2049 6.7822 42.3578 9.48891 42.7147C14.8965 43.4276 22.236 44.9455 30.2225 47.1012C38.209 49.2568 45.3155 51.6382 50.3474 53.743C52.866 54.7966 54.8499 55.7747 56.162 56.6139C56.8206 57.0351 57.289 57.4082 57.5714 57.724C57.8702 58.0581 57.8776 58.2314 57.8617 58.2902Z" stroke="url(#paint6_linear)" stroke-width="0.8"/>
<path d="M51.6608 21.3998C50.3735 21.0524 49.8523 22.9833 51.1396 23.3307C52.4268 23.6782 52.948 21.7473 51.6608 21.3998Z" fill="#D6DAE0"/>
<path d="M22.6368 13.3653C22.6118 12.4676 22.2076 11.7645 21.4444 11.2912C21.2177 11.1409 21.2326 11.0855 21.5042 11.0697C22.4019 11.0447 23.105 10.6405 23.5783 9.87725C23.7286 9.65052 23.784 9.66546 23.7998 9.93703C23.8248 10.8348 24.229 11.5379 24.9922 12.0112C25.219 12.1615 25.204 12.2169 24.9325 12.2327C24.0347 12.2576 23.3316 12.6619 22.8583 13.4251C22.708 13.6518 22.6526 13.6369 22.6368 13.3653Z" fill="#D6DAE0"/>
</g>
<defs>
<linearGradient id="paint0_linear" x1="28.0015" y1="17.7103" x2="44.6239" y2="28.8193" gradientUnits="userSpaceOnUse">
<stop stop-color="#C9CED4"/>
<stop offset="1" stop-color="#EDF1F5"/>
</linearGradient>
<linearGradient id="paint1_linear" x1="18.7259" y1="24.48" x2="28.9178" y2="45.4277" gradientUnits="userSpaceOnUse">
<stop stop-color="#BBC2CB"/>
<stop offset="1" stop-color="#EDF1F5"/>
</linearGradient>
<linearGradient id="paint2_linear" x1="18.2064" y1="26.4108" x2="28.3983" y2="47.3586" gradientUnits="userSpaceOnUse">
<stop stop-color="#C9CED4"/>
<stop offset="1" stop-color="#EDF1F5"/>
</linearGradient>
<linearGradient id="paint3_linear" x1="33.194" y1="36.095" x2="29.0059" y2="51.6112" gradientUnits="userSpaceOnUse">
<stop stop-color="white" stop-opacity="0.22"/>
<stop offset="0.427942" stop-color="white" stop-opacity="0.572058"/>
<stop offset="1" stop-color="#DCE0E5" stop-opacity="0.15"/>
</linearGradient>
<linearGradient id="paint4_linear" x1="38.7607" y1="35.6558" x2="36.5131" y2="43.9828" gradientUnits="userSpaceOnUse">
<stop stop-color="#E4E6EA"/>
<stop offset="1" stop-color="#BCC3CC" stop-opacity="0"/>
</linearGradient>
<linearGradient id="paint5_linear" x1="38.5448" y1="40.1289" x2="35.548" y2="51.2315" gradientUnits="userSpaceOnUse">
<stop stop-color="#E4E6EA"/>
<stop offset="1" stop-color="#BCC3CC" stop-opacity="0"/>
</linearGradient>
<linearGradient id="paint6_linear" x1="37.9043" y1="46.1708" x2="34.9075" y2="57.2735" gradientUnits="userSpaceOnUse">
<stop stop-color="#E4E6EA"/>
<stop offset="1" stop-color="#BCC3CC" stop-opacity="0"/>
</linearGradient>
<clipPath id="clip0">
<rect width="64" height="64" fill="white" transform="translate(11.6797 -7) rotate(15.1051)"/>
</clipPath>
</defs>
</svg>
